<svg xmlns="http://www.w3.org/2000/svg" xmlns:xlink="http://www.w3.org/1999/xlink" width="500" zoomAndPan="magnify" viewBox="0 0 375 374.999991" height="500" preserveAspectRatio="xMidYMid meet" version="1.0"><defs><g/><clipPath id="c9c7901a51"><path d="M 26.683594 111 L 188 111 L 188 253.5 L 26.683594 253.5 Z M 26.683594 111 " clip-rule="nonzero"/></clipPath><clipPath id="35fd634feb"><path d="M 187 37.5 L 348.433594 37.5 L 348.433594 180 L 187 180 Z M 187 37.5 " clip-rule="nonzero"/></clipPath></defs><rect x="-37.5" width="450" fill="#ffffff" y="-37.499999" height="449.999989" fill-opacity="1"/><rect x="-37.5" width="450" fill="#ffffff" y="-37.499999" height="449.999989" fill-opacity="1"/><rect x="-37.5" width="450" fill="#050a30" y="-37.499999" height="449.999989" fill-opacity="1"/><g clip-path="url(#c9c7901a51)"><path fill="#233dff" d="M 135.023438 212.121094 L 135.023438 231.671875 L 46.328125 190.535156 L 46.328125 174.675781 L 135.023438 133.539062 L 135.023438 153.09375 L 67.949219 182.421875 L 67.949219 182.789062 Z M 187.695312 111.8125 L 39.375 111.8125 C 32.371094 111.8125 26.695312 117.480469 26.695312 124.472656 L 26.695312 240.738281 C 26.695312 247.726562 32.371094 253.394531 39.375 253.394531 L 146.519531 253.394531 L 187.695312 111.8125 " fill-opacity="1" fill-rule="nonzero"/></g><g clip-path="url(#35fd634feb)"><path fill="#cae8ff" d="M 328.816406 116.84375 L 240.128906 157.425781 L 240.128906 137.867188 L 308.679688 108.542969 L 308.679688 108.175781 L 240.128906 78.84375 L 240.128906 59.292969 L 328.816406 99.875 Z M 228.871094 37.566406 L 187.695312 179.148438 L 335.773438 179.148438 C 342.777344 179.148438 348.453125 173.480469 348.453125 166.488281 L 348.453125 50.222656 C 348.453125 43.234375 342.777344 37.566406 335.773438 37.566406 L 228.871094 37.566406 " fill-opacity="1" fill-rule="nonzero"/></g><g fill="#f4f6fc" fill-opacity="1"><g transform="translate(39.099686, 306.269569)"><g><path d="M 15.140625 -27.875 C 18.015625 -27.875 20.488281 -27.203125 22.5625 -25.859375 C 24.644531 -24.515625 26.226562 -22.78125 27.3125 -20.65625 C 28.40625 -18.539062 28.953125 -16.3125 28.953125 -13.96875 C 28.953125 -9.894531 27.6875 -6.578125 25.15625 -4.015625 C 22.632812 -1.453125 19.285156 -0.113281 15.109375 0 L 1.34375 0 L 1.09375 -1.34375 C 1.894531 -1.875 3.078125 -2.441406 4.640625 -3.046875 L 4.640625 -25.015625 L 1.671875 -25.40625 L 1.71875 -27.53125 C 5.726562 -27.757812 10.203125 -27.875 15.140625 -27.875 Z M 14.1875 -3.46875 C 16.582031 -3.46875 18.523438 -4.429688 20.015625 -6.359375 C 21.515625 -8.285156 22.265625 -10.738281 22.265625 -13.71875 C 22.265625 -16.039062 21.78125 -18.203125 20.8125 -20.203125 C 19.851562 -22.210938 18.609375 -23.679688 17.078125 -24.609375 L 11 -23.96875 L 11 -3.96875 C 12.144531 -3.632812 13.207031 -3.46875 14.1875 -3.46875 Z M 14.1875 -3.46875 "/></g></g></g><g fill="#f4f6fc" fill-opacity="1"><g transform="translate(70.477227, 306.269569)"><g><path d="M 30.375 -2.140625 L 30.34375 0 L 17.15625 0 L 16.90625 -1.34375 C 17.6875 -1.8125 18.898438 -2.394531 20.546875 -3.09375 L 18.78125 -7.609375 L 8.828125 -7.609375 L 6.984375 -2.671875 L 10.84375 -2.140625 L 10.796875 0 L -0.578125 0 L -0.84375 -1.34375 C 0 -1.875 1.160156 -2.429688 2.640625 -3.015625 L 11.890625 -25.734375 L 11.375 -27.03125 L 16.859375 -28.53125 L 27.40625 -2.546875 Z M 17.578125 -10.796875 L 13.8125 -20.671875 L 10.046875 -10.796875 Z M 17.578125 -10.796875 "/></g></g></g><g fill="#f4f6fc" fill-opacity="1"><g transform="translate(102.398636, 306.269569)"><g><path d="M 28.578125 -2.140625 L 28.53125 0 L 20.171875 0 L 14.484375 -10.671875 L 11 -10.625 L 11 -2.671875 L 14.765625 -2.140625 L 14.734375 0 L 1.34375 0 L 1.09375 -1.34375 C 1.894531 -1.875 3.078125 -2.441406 4.640625 -3.046875 L 4.640625 -25.015625 L 1.546875 -25.40625 L 1.59375 -27.53125 L 14.9375 -27.875 C 18.144531 -27.875 20.773438 -27.0625 22.828125 -25.4375 C 24.878906 -23.820312 25.90625 -21.800781 25.90625 -19.375 C 25.90625 -17.726562 25.398438 -16.195312 24.390625 -14.78125 C 23.390625 -13.375 22.023438 -12.3125 20.296875 -11.59375 L 25.90625 -2.46875 Z M 11 -14.140625 C 11.945312 -13.941406 12.851562 -13.84375 13.71875 -13.84375 C 15.707031 -13.84375 17.140625 -14.34375 18.015625 -15.34375 C 18.890625 -16.351562 19.328125 -17.65625 19.328125 -19.25 C 19.328125 -21.707031 18.492188 -23.492188 16.828125 -24.609375 L 11 -23.96875 Z M 11 -14.140625 "/></g></g></g><g fill="#f4f6fc" fill-opacity="1"><g transform="translate(133.190479, 306.269569)"><g><path d="M 14.859375 -2.140625 L 14.8125 0 L 1.34375 0 L 1.09375 -1.34375 C 1.894531 -1.875 3.078125 -2.441406 4.640625 -3.046875 L 4.640625 -24.9375 L 1.421875 -25.40625 L 1.46875 -27.53125 L 14.265625 -27.53125 L 14.515625 -26.1875 C 13.484375 -25.582031 12.3125 -25.015625 11 -24.484375 L 11 -2.671875 Z M 14.859375 -2.140625 "/></g></g></g><g fill="#f4f6fc" fill-opacity="1"><g transform="translate(151.013158, 306.269569)"><g><path d="M 13.96875 -28.375 C 17.957031 -28.375 21.234375 -26.984375 23.796875 -24.203125 C 26.367188 -21.429688 27.65625 -17.828125 27.65625 -13.390625 C 27.65625 -9.117188 26.40625 -5.675781 23.90625 -3.0625 C 21.414062 -0.457031 18.21875 0.84375 14.3125 0.84375 C 10.289062 0.84375 6.992188 -0.476562 4.421875 -3.125 C 1.859375 -5.78125 0.578125 -9.269531 0.578125 -13.59375 C 0.578125 -17.945312 1.835938 -21.5 4.359375 -24.25 C 6.890625 -27 10.09375 -28.375 13.96875 -28.375 Z M 10.375 -24.109375 C 9.457031 -23.328125 8.710938 -22.054688 8.140625 -20.296875 C 7.566406 -18.535156 7.28125 -16.554688 7.28125 -14.359375 C 7.28125 -10.984375 7.945312 -8.21875 9.28125 -6.0625 C 10.625 -3.914062 12.535156 -2.84375 15.015625 -2.84375 C 15.660156 -2.84375 16.457031 -2.96875 17.40625 -3.21875 C 18.46875 -4.0625 19.316406 -5.390625 19.953125 -7.203125 C 20.597656 -9.015625 20.921875 -11.035156 20.921875 -13.265625 C 20.921875 -16.640625 20.238281 -19.382812 18.875 -21.5 C 17.507812 -23.625 15.695312 -24.6875 13.4375 -24.6875 C 12.488281 -24.6875 11.46875 -24.492188 10.375 -24.109375 Z M 10.375 -24.109375 "/></g></g></g><g fill="#f4f6fc" fill-opacity="1"><g transform="translate(181.09378, 306.269569)"><g/></g></g><g fill="#f4f6fc" fill-opacity="1"><g transform="translate(194.021643, 306.269569)"><g><path d="M 29.703125 -2.171875 L 29.671875 0 L 21.25 0 L 12.71875 -11.96875 L 11 -10.171875 L 11 -2.640625 L 14.515625 -2.140625 L 14.484375 0 L 1.34375 0 L 1.09375 -1.34375 C 1.894531 -1.875 3.078125 -2.441406 4.640625 -3.046875 L 4.640625 -24.9375 L 1.375 -25.40625 L 1.421875 -27.53125 L 14.265625 -27.53125 L 14.515625 -26.1875 C 13.484375 -25.582031 12.3125 -25.015625 11 -24.484375 L 11 -15.109375 L 20.25 -24.984375 L 17.484375 -25.40625 L 17.53125 -27.53125 L 27.90625 -27.53125 L 28.15625 -26.1875 C 27.570312 -25.800781 26.414062 -25.285156 24.6875 -24.640625 L 16.859375 -16.359375 L 27.109375 -2.59375 Z M 29.703125 -2.171875 "/></g></g></g><g fill="#f4f6fc" fill-opacity="1"><g transform="translate(225.943058, 306.269569)"><g><path d="M 30.46875 -26.1875 C 29.425781 -25.582031 28.253906 -25.015625 26.953125 -24.484375 L 26.953125 -11.96875 C 26.921875 -7.5 25.9375 -4.253906 24 -2.234375 C 22.0625 -0.210938 19.414062 0.796875 16.0625 0.796875 C 12.238281 0.796875 9.210938 -0.335938 6.984375 -2.609375 C 4.753906 -4.890625 3.613281 -8.023438 3.5625 -12.015625 L 3.5625 -24.9375 L 0.328125 -25.40625 L 0.375 -27.53125 L 13.1875 -27.53125 L 13.4375 -26.1875 C 12.40625 -25.582031 11.234375 -25.015625 9.921875 -24.484375 L 9.921875 -11.09375 C 9.921875 -8.4375 10.519531 -6.425781 11.71875 -5.0625 C 12.914062 -3.695312 14.5625 -3.015625 16.65625 -3.015625 C 18.019531 -3.015625 19.234375 -3.347656 20.296875 -4.015625 C 21.660156 -5.296875 22.367188 -7.804688 22.421875 -11.546875 L 22.421875 -24.890625 L 18.875 -25.40625 L 18.90625 -27.53125 L 30.21875 -27.53125 Z M 30.46875 -26.1875 "/></g></g></g><g fill="#f4f6fc" fill-opacity="1"><g transform="translate(258.617517, 306.269569)"><g><path d="M 10.875 -9.921875 L 10.875 -2.84375 L 15.90625 -2.140625 L 15.859375 0 L 1.375 0 L 1.125 -1.34375 C 1.988281 -1.875 3.117188 -2.429688 4.515625 -3.015625 L 4.515625 -25.015625 L 1.421875 -25.40625 L 1.46875 -27.53125 L 14.984375 -27.875 C 18.210938 -27.875 20.820312 -27.015625 22.8125 -25.296875 C 24.8125 -23.578125 25.8125 -21.40625 25.8125 -18.78125 C 25.8125 -16.300781 24.863281 -14.222656 22.96875 -12.546875 C 21.070312 -10.878906 18.632812 -10.015625 15.65625 -9.953125 Z M 10.875 -23.96875 L 10.875 -13.640625 C 11.988281 -13.421875 13.0625 -13.3125 14.09375 -13.3125 C 15.800781 -13.3125 17.085938 -13.847656 17.953125 -14.921875 C 18.816406 -15.992188 19.25 -17.3125 19.25 -18.875 C 19.25 -20.070312 19.023438 -21.210938 18.578125 -22.296875 C 18.128906 -23.390625 17.503906 -24.160156 16.703125 -24.609375 Z M 10.875 -23.96875 "/></g></g></g><g fill="#f4f6fc" fill-opacity="1"><g transform="translate(286.899207, 306.269569)"><g><path d="M 23.71875 -8.328125 C 23.78125 -5.585938 23.613281 -2.8125 23.21875 0 L 1.34375 0 L 1.09375 -1.34375 C 1.894531 -1.875 3.078125 -2.441406 4.640625 -3.046875 L 4.640625 -25.015625 L 1.546875 -25.40625 L 1.59375 -27.53125 L 23.4375 -27.53125 C 23.570312 -25.25 23.347656 -22.597656 22.765625 -19.578125 L 19.25 -19.578125 L 18.53125 -23.71875 L 11 -24.265625 L 11 -15.265625 L 20 -15.984375 L 20 -11.765625 L 11 -12.140625 L 11 -3.46875 L 18.828125 -4.015625 L 20.203125 -8.578125 Z M 23.71875 -8.328125 "/></g></g></g><g fill="#f4f6fc" fill-opacity="1"><g transform="translate(314.55335, 306.269569)"><g><path d="M 23.84375 -3.015625 L 15.265625 0.671875 C 11.835938 0.785156 9.015625 0.171875 6.796875 -1.171875 C 4.578125 -2.515625 2.960938 -4.265625 1.953125 -6.421875 C 0.953125 -8.585938 0.453125 -10.925781 0.453125 -13.4375 C 0.453125 -16 0.984375 -18.421875 2.046875 -20.703125 C 3.109375 -22.992188 4.695312 -24.84375 6.8125 -26.25 C 8.9375 -27.664062 11.503906 -28.375 14.515625 -28.375 C 17.753906 -28.375 20.628906 -27.492188 23.140625 -25.734375 C 23.191406 -24.835938 23.132812 -23.632812 22.96875 -22.125 C 22.800781 -20.625 22.550781 -19.316406 22.21875 -18.203125 L 18.375 -18.203125 L 17.359375 -23.4375 C 15.441406 -24.269531 13.335938 -24.6875 11.046875 -24.6875 C 9.679688 -23.65625 8.65625 -22.203125 7.96875 -20.328125 C 7.289062 -18.460938 6.953125 -16.5 6.953125 -14.4375 C 6.953125 -11.113281 7.757812 -8.472656 9.375 -6.515625 C 10.988281 -4.566406 13.175781 -3.632812 15.9375 -3.71875 L 22.84375 -5.984375 Z M 23.84375 -3.015625 "/></g></g></g><g fill="#f4f6fc" fill-opacity="1"><g transform="translate(79.802278, 341.249978)"><g><path d="M 17.109375 -10.859375 L 15.796875 -10.203125 L 12.875 0.015625 C 12.1875 0.140625 11.367188 0.21875 10.421875 0.25 L 8.5625 -5.875 L 8.171875 -3.859375 L 6.984375 0.015625 C 6.285156 0.140625 5.46875 0.21875 4.53125 0.25 L 1.265625 -10.359375 L 0.03125 -10.53125 L 0.046875 -11.421875 L 5.328125 -11.421875 L 5.4375 -10.859375 C 5.101562 -10.648438 4.628906 -10.421875 4.015625 -10.171875 L 5.65625 -4.078125 L 5.796875 -1.765625 L 5.890625 -1.765625 L 7.796875 -8.390625 L 7.078125 -10.75 L 9.59375 -11.3125 L 11.484375 -4.234375 L 11.6875 -1.765625 L 11.71875 -1.765625 L 14.046875 -10.296875 L 12.359375 -10.53125 L 12.375 -11.421875 L 17.015625 -11.421875 Z M 17.109375 -10.859375 "/></g></g></g><g fill="#f4f6fc" fill-opacity="1"><g transform="translate(102.684182, 341.249978)"><g><path d="M 9.84375 -3.453125 C 9.863281 -2.316406 9.796875 -1.164062 9.640625 0 L 0.5625 0 L 0.453125 -0.5625 C 0.785156 -0.78125 1.273438 -1.015625 1.921875 -1.265625 L 1.921875 -10.375 L 0.640625 -10.53125 L 0.65625 -11.421875 L 9.71875 -11.421875 C 9.78125 -10.472656 9.6875 -9.375 9.4375 -8.125 L 7.984375 -8.125 L 7.6875 -9.84375 L 4.5625 -10.0625 L 4.5625 -6.34375 L 8.296875 -6.625 L 8.296875 -4.875 L 4.5625 -5.03125 L 4.5625 -1.4375 L 7.8125 -1.671875 L 8.390625 -3.5625 Z M 9.84375 -3.453125 "/></g></g></g><g fill="#f4f6fc" fill-opacity="1"><g transform="translate(119.200951, 341.249978)"><g><path d="M 8.296875 -6.0625 C 9.171875 -5.894531 9.847656 -5.546875 10.328125 -5.015625 C 10.816406 -4.484375 11.0625 -3.863281 11.0625 -3.15625 C 11.0625 -2.21875 10.65625 -1.460938 9.84375 -0.890625 C 9.039062 -0.328125 7.945312 -0.03125 6.5625 0 L 0.5625 0 L 0.453125 -0.5625 C 0.785156 -0.78125 1.273438 -1.015625 1.921875 -1.265625 L 1.921875 -10.375 L 0.6875 -10.53125 L 0.71875 -11.421875 C 2.40625 -11.515625 4.207031 -11.5625 6.125 -11.5625 C 7.445312 -11.5625 8.503906 -11.285156 9.296875 -10.734375 C 10.097656 -10.191406 10.5 -9.488281 10.5 -8.625 C 10.5 -8.050781 10.3125 -7.515625 9.9375 -7.015625 C 9.5625 -6.515625 9.015625 -6.195312 8.296875 -6.0625 Z M 4.5625 -9.953125 L 4.5625 -6.53125 L 5.359375 -6.53125 C 6.179688 -6.53125 6.796875 -6.707031 7.203125 -7.0625 C 7.617188 -7.414062 7.828125 -7.84375 7.828125 -8.34375 C 7.828125 -8.757812 7.695312 -9.148438 7.4375 -9.515625 C 7.175781 -9.878906 6.847656 -10.109375 6.453125 -10.203125 Z M 5.953125 -1.34375 L 6.25 -1.3125 C 6.894531 -1.3125 7.390625 -1.5 7.734375 -1.875 C 8.085938 -2.25 8.265625 -2.6875 8.265625 -3.1875 C 8.265625 -3.78125 8.050781 -4.289062 7.625 -4.71875 C 7.207031 -5.144531 6.679688 -5.363281 6.046875 -5.375 L 4.5625 -5.375 L 4.5625 -1.46875 Z M 5.953125 -1.34375 "/></g></g></g><g fill="#f4f6fc" fill-opacity="1"><g transform="translate(136.602243, 341.249978)"><g/></g></g><g fill="#f4f6fc" fill-opacity="1"><g transform="translate(147.014037, 341.249978)"><g><path d="M 6.28125 -11.5625 C 7.476562 -11.5625 8.503906 -11.28125 9.359375 -10.71875 C 10.222656 -10.164062 10.878906 -9.445312 11.328125 -8.5625 C 11.785156 -7.6875 12.015625 -6.765625 12.015625 -5.796875 C 12.015625 -4.109375 11.488281 -2.726562 10.4375 -1.65625 C 9.394531 -0.59375 8.003906 -0.0390625 6.265625 0 L 0.5625 0 L 0.453125 -0.5625 C 0.785156 -0.78125 1.273438 -1.015625 1.921875 -1.265625 L 1.921875 -10.375 L 0.6875 -10.53125 L 0.71875 -11.421875 C 2.382812 -11.515625 4.238281 -11.5625 6.28125 -11.5625 Z M 5.890625 -1.4375 C 6.878906 -1.4375 7.679688 -1.835938 8.296875 -2.640625 C 8.921875 -3.441406 9.234375 -4.457031 9.234375 -5.6875 C 9.234375 -6.65625 9.03125 -7.554688 8.625 -8.390625 C 8.226562 -9.222656 7.710938 -9.828125 7.078125 -10.203125 L 4.5625 -9.953125 L 4.5625 -1.65625 C 5.039062 -1.507812 5.484375 -1.4375 5.890625 -1.4375 Z M 5.890625 -1.4375 "/></g></g></g><g fill="#f4f6fc" fill-opacity="1"><g transform="translate(165.074397, 341.249978)"><g><path d="M 9.84375 -3.453125 C 9.863281 -2.316406 9.796875 -1.164062 9.640625 0 L 0.5625 0 L 0.453125 -0.5625 C 0.785156 -0.78125 1.273438 -1.015625 1.921875 -1.265625 L 1.921875 -10.375 L 0.640625 -10.53125 L 0.65625 -11.421875 L 9.71875 -11.421875 C 9.78125 -10.472656 9.6875 -9.375 9.4375 -8.125 L 7.984375 -8.125 L 7.6875 -9.84375 L 4.5625 -10.0625 L 4.5625 -6.34375 L 8.296875 -6.625 L 8.296875 -4.875 L 4.5625 -5.03125 L 4.5625 -1.4375 L 7.8125 -1.671875 L 8.390625 -3.5625 Z M 9.84375 -3.453125 "/></g></g></g><g fill="#f4f6fc" fill-opacity="1"><g transform="translate(181.591162, 341.249978)"><g><path d="M 12.34375 -10.859375 C 11.945312 -10.617188 11.492188 -10.398438 10.984375 -10.203125 L 7.4375 0 C 6.726562 0.125 5.910156 0.207031 4.984375 0.25 L 1.265625 -10.34375 L -0.03125 -10.53125 L -0.015625 -11.421875 L 5.359375 -11.421875 L 5.46875 -10.859375 C 5.019531 -10.597656 4.539062 -10.363281 4.03125 -10.15625 L 6.03125 -4.03125 L 6.234375 -1.765625 L 6.359375 -1.765625 L 9.234375 -10.3125 L 7.6875 -10.53125 L 7.703125 -11.421875 L 12.234375 -11.421875 Z M 12.34375 -10.859375 "/></g></g></g><g fill="#f4f6fc" fill-opacity="1"><g transform="translate(199.703553, 341.249978)"><g><path d="M 9.84375 -3.453125 C 9.863281 -2.316406 9.796875 -1.164062 9.640625 0 L 0.5625 0 L 0.453125 -0.5625 C 0.785156 -0.78125 1.273438 -1.015625 1.921875 -1.265625 L 1.921875 -10.375 L 0.640625 -10.53125 L 0.65625 -11.421875 L 9.71875 -11.421875 C 9.78125 -10.472656 9.6875 -9.375 9.4375 -8.125 L 7.984375 -8.125 L 7.6875 -9.84375 L 4.5625 -10.0625 L 4.5625 -6.34375 L 8.296875 -6.625 L 8.296875 -4.875 L 4.5625 -5.03125 L 4.5625 -1.4375 L 7.8125 -1.671875 L 8.390625 -3.5625 Z M 9.84375 -3.453125 "/></g></g></g><g fill="#f4f6fc" fill-opacity="1"><g transform="translate(216.220318, 341.249978)"><g><path d="M 10.21875 -3.375 C 10.21875 -1.976562 10.144531 -0.851562 10 0 L 0.5625 0 L 0.453125 -0.5625 C 0.785156 -0.78125 1.273438 -1.015625 1.921875 -1.265625 L 1.921875 -10.34375 L 0.59375 -10.53125 L 0.609375 -11.421875 L 5.921875 -11.421875 L 6.03125 -10.859375 C 5.59375 -10.609375 5.101562 -10.375 4.5625 -10.15625 L 4.5625 -1.453125 L 8.03125 -1.734375 L 8.71875 -4.125 L 10.21875 -4 Z M 10.21875 -3.375 "/></g></g></g><g fill="#f4f6fc" fill-opacity="1"><g transform="translate(232.372863, 341.249978)"><g><path d="M 5.796875 -11.765625 C 7.453125 -11.765625 8.8125 -11.1875 9.875 -10.03125 C 10.9375 -8.882812 11.46875 -7.394531 11.46875 -5.5625 C 11.46875 -3.789062 10.945312 -2.363281 9.90625 -1.28125 C 8.875 -0.195312 7.550781 0.34375 5.9375 0.34375 C 4.269531 0.34375 2.90625 -0.203125 1.84375 -1.296875 C 0.78125 -2.398438 0.25 -3.847656 0.25 -5.640625 C 0.25 -7.441406 0.769531 -8.910156 1.8125 -10.046875 C 2.863281 -11.191406 4.191406 -11.765625 5.796875 -11.765625 Z M 4.3125 -10 C 3.925781 -9.675781 3.613281 -9.148438 3.375 -8.421875 C 3.132812 -7.691406 3.015625 -6.867188 3.015625 -5.953125 C 3.015625 -4.554688 3.289062 -3.410156 3.84375 -2.515625 C 4.40625 -1.628906 5.203125 -1.1875 6.234375 -1.1875 C 6.492188 -1.1875 6.820312 -1.238281 7.21875 -1.34375 C 7.65625 -1.6875 8.003906 -2.234375 8.265625 -2.984375 C 8.535156 -3.734375 8.671875 -4.570312 8.671875 -5.5 C 8.671875 -6.90625 8.390625 -8.046875 7.828125 -8.921875 C 7.265625 -9.796875 6.515625 -10.234375 5.578125 -10.234375 C 5.179688 -10.234375 4.757812 -10.15625 4.3125 -10 Z M 4.3125 -10 "/></g></g></g><g fill="#f4f6fc" fill-opacity="1"><g transform="translate(249.895563, 341.249978)"><g><path d="M 4.515625 -4.109375 L 4.515625 -1.1875 L 6.59375 -0.890625 L 6.578125 0 L 0.578125 0 L 0.46875 -0.5625 C 0.820312 -0.78125 1.289062 -1.007812 1.875 -1.25 L 1.875 -10.375 L 0.59375 -10.53125 L 0.609375 -11.421875 L 6.21875 -11.5625 C 7.5625 -11.5625 8.644531 -11.203125 9.46875 -10.484375 C 10.289062 -9.773438 10.703125 -8.878906 10.703125 -7.796875 C 10.703125 -6.765625 10.304688 -5.898438 9.515625 -5.203125 C 8.734375 -4.515625 7.726562 -4.15625 6.5 -4.125 Z M 4.515625 -9.953125 L 4.515625 -5.65625 C 4.972656 -5.5625 5.414062 -5.515625 5.84375 -5.515625 C 6.550781 -5.515625 7.082031 -5.738281 7.4375 -6.1875 C 7.800781 -6.632812 7.984375 -7.179688 7.984375 -7.828125 C 7.984375 -8.328125 7.890625 -8.800781 7.703125 -9.25 C 7.523438 -9.695312 7.265625 -10.015625 6.921875 -10.203125 Z M 4.515625 -9.953125 "/></g></g></g><g fill="#f4f6fc" fill-opacity="1"><g transform="translate(266.672486, 341.249978)"><g><path d="M 9.84375 -3.453125 C 9.863281 -2.316406 9.796875 -1.164062 9.640625 0 L 0.5625 0 L 0.453125 -0.5625 C 0.785156 -0.78125 1.273438 -1.015625 1.921875 -1.265625 L 1.921875 -10.375 L 0.640625 -10.53125 L 0.65625 -11.421875 L 9.71875 -11.421875 C 9.78125 -10.472656 9.6875 -9.375 9.4375 -8.125 L 7.984375 -8.125 L 7.6875 -9.84375 L 4.5625 -10.0625 L 4.5625 -6.34375 L 8.296875 -6.625 L 8.296875 -4.875 L 4.5625 -5.03125 L 4.5625 -1.4375 L 7.8125 -1.671875 L 8.390625 -3.5625 Z M 9.84375 -3.453125 "/></g></g></g><g fill="#f4f6fc" fill-opacity="1"><g transform="translate(283.18925, 341.249978)"><g><path d="M 11.859375 -0.890625 L 11.84375 0 L 8.359375 0 L 6 -4.421875 L 4.5625 -4.40625 L 4.5625 -1.109375 L 6.125 -0.890625 L 6.109375 0 L 0.5625 0 L 0.453125 -0.5625 C 0.785156 -0.78125 1.273438 -1.015625 1.921875 -1.265625 L 1.921875 -10.375 L 0.640625 -10.53125 L 0.65625 -11.421875 L 6.203125 -11.5625 C 7.523438 -11.5625 8.613281 -11.222656 9.46875 -10.546875 C 10.320312 -9.878906 10.75 -9.039062 10.75 -8.03125 C 10.75 -7.351562 10.539062 -6.722656 10.125 -6.140625 C 9.707031 -5.554688 9.140625 -5.113281 8.421875 -4.8125 L 10.75 -1.03125 Z M 4.5625 -5.875 C 4.957031 -5.789062 5.332031 -5.75 5.6875 -5.75 C 6.507812 -5.75 7.101562 -5.957031 7.46875 -6.375 C 7.832031 -6.789062 8.015625 -7.328125 8.015625 -7.984375 C 8.015625 -9.003906 7.671875 -9.742188 6.984375 -10.203125 L 4.5625 -9.953125 Z M 4.5625 -5.875 "/></g></g></g></svg>